<svg width="40" height="40" viewBox="0 0 40 40" fill="none" xmlns="http://www.w3.org/2000/svg">
<defs>
<linearGradient id="obs_bg" x1="3" y1="1" x2="28" y2="38" gradientUnits="userSpaceOnUse">
<stop offset="0.259336" stop-color="#FFDB6E"/>
<stop offset="1" stop-color="#FFBC5E"/>
</linearGradient>
<linearGradient id="obs_fg" x1="4" y1="3" x2="30" y2="38" gradientUnits="userSpaceOnUse">
<stop offset="0.259336" stop-color="#FFDB6E"/>
<stop offset="1" stop-color="#FFBC5E"/>
</linearGradient>
</defs>
<!-- Monitor background -->
<path opacity="0.15" d="M4 5C2.9 5 2 5.9 2 7V28C2 29.1 2.9 30 4 30H36C37.1 30 38 29.1 38 28V7C38 5.9 37.1 5 36 5H4Z" fill="url(#obs_bg)"/>
<!-- Monitor outer frame -->
<path d="M36.2 3.5H3.8C2.26 3.5 1 4.76 1 6.3V28.7C1 30.24 2.26 31.5 3.8 31.5H16.5L15 35H14C13.56 35 13.2 35.36 13.2 35.8C13.2 36.24 13.56 36.6 14 36.6H26C26.44 36.6 26.8 36.24 26.8 35.8C26.8 35.36 26.44 35 26 35H25L23.5 31.5H36.2C37.74 31.5 39 30.24 39 28.7V6.3C39 4.76 37.74 3.5 36.2 3.5ZM37.4 28.7C37.4 29.36 36.86 29.9 36.2 29.9H3.8C3.14 29.9 2.6 29.36 2.6 28.7V6.3C2.6 5.64 3.14 5.1 3.8 5.1H36.2C36.86 5.1 37.4 5.64 37.4 6.3V28.7Z" fill="url(#obs_fg)"/>
<!-- Heartbeat/pulse line -->
<path d="M5.5 18H11L13.5 12L16 22L19 10L22 24L24.5 15L26.5 18H34.5" stroke="url(#obs_fg)" stroke-width="1.5" stroke-linecap="round" stroke-linejoin="round" fill="none"/>
<!-- Small bar chart bottom left -->
<rect x="7" y="25" width="2.5" height="3" rx="0.5" fill="url(#obs_fg)"/>
<rect x="11" y="23.5" width="2.5" height="4.5" rx="0.5" fill="url(#obs_fg)"/>
<rect x="15" y="24.5" width="2.5" height="3.5" rx="0.5" fill="url(#obs_fg)"/>
<!-- Small metric dots top right -->
<circle cx="32" cy="8.5" r="1" fill="url(#obs_fg)"/>
<circle cx="32" cy="12" r="1" fill="url(#obs_fg)"/>
<circle cx="35" cy="8.5" r="1" fill="url(#obs_fg)"/>
<circle cx="35" cy="12" r="1" fill="url(#obs_fg)"/>
</svg>
