<svg width="40" height="40" viewBox="0 0 40 40" fill="none" xmlns="http://www.w3.org/2000/svg">
<defs>
<linearGradient id="cloud_bg" x1="3" y1="4" x2="28" y2="38" gradientUnits="userSpaceOnUse">
<stop offset="0.259336" stop-color="#FFDB6E"/>
<stop offset="1" stop-color="#FFBC5E"/>
</linearGradient>
<linearGradient id="cloud_fg" x1="2" y1="5" x2="32" y2="36" gradientUnits="userSpaceOnUse">
<stop offset="0.259336" stop-color="#FFDB6E"/>
<stop offset="1" stop-color="#FFBC5E"/>
</linearGradient>
</defs>
<!-- Cloud background fill -->
<path opacity="0.15" d="M32 17C32 16.7 31.98 16.4 31.93 16.1C31.35 12 27.8 8.8 23.5 8.8C21.7 8.8 20.1 9.35 18.7 10.3C17.35 8.2 14.95 6.8 12.25 6.8C7.95 6.8 4.5 10.3 4.5 14.5C4.5 14.8 4.53 15.1 4.56 15.4C2.8 16.5 1.6 18.4 1.6 20.5C1.6 23.8 4.3 26.5 7.6 26.5H32.4C35.7 26.5 38.4 23.8 38.4 20.5C38.4 17.5 36.2 15 33.4 14.2" fill="url(#cloud_bg)"/>
<!-- Cloud outline -->
<path d="M32.5 25.5H7.5C4.46 25.5 2 23.04 2 20C2 17.65 3.4 15.62 5.42 14.72C5.36 14.32 5.32 13.92 5.32 13.5C5.32 9.36 8.68 6 12.82 6C15.18 6 17.28 7.1 18.64 8.82C20 7.72 21.72 7.05 23.6 7.05C28.02 7.05 31.62 10.36 32.08 14.62C35.08 15.26 37.32 17.9 37.32 21.08C37.32 24.52 34.52 25.5 32.5 25.5ZM7.5 23.9H32.5C33.7 23.9 35.72 23.3 35.72 21.08C35.72 18.72 33.9 16.78 31.56 16.56L30.6 16.46L30.48 15.5C30.12 12.46 27.56 10.12 24.48 10.12C22.8 10.12 21.24 10.82 20.1 12.04L19.04 13.18L18.16 11.88C17.08 10.26 15.24 9.26 13.24 9.26C10.02 9.26 7.38 11.9 7.38 15.12C7.38 15.58 7.42 16.04 7.52 16.48L7.74 17.46L6.8 17.88C5.5 18.5 4.66 19.78 4.66 21.24C4.66 23.26 5.66 23.9 7.5 23.9Z" fill="url(#cloud_fg)"/>
<!-- Upload/deploy arrow -->
<path d="M20 31.5V18" stroke="url(#cloud_fg)" stroke-width="1.5" stroke-linecap="round"/>
<path d="M15.5 22L20 17L24.5 22" stroke="url(#cloud_fg)" stroke-width="1.5" stroke-linecap="round" stroke-linejoin="round" fill="none"/>
<!-- Three small nodes at bottom -->
<circle cx="14" cy="35" r="1.5" stroke="url(#cloud_fg)" stroke-width="1.2" fill="none"/>
<circle cx="20" cy="35" r="1.5" stroke="url(#cloud_fg)" stroke-width="1.2" fill="none"/>
<circle cx="26" cy="35" r="1.5" stroke="url(#cloud_fg)" stroke-width="1.2" fill="none"/>
<!-- Lines from arrow base to nodes -->
<path d="M17 31.5H23" stroke="url(#cloud_fg)" stroke-width="1.2" stroke-linecap="round"/>
<path d="M14 33.5V31.5" stroke="url(#cloud_fg)" stroke-width="1.2" stroke-linecap="round"/>
<path d="M20 33.5V31.5" stroke="url(#cloud_fg)" stroke-width="1.2" stroke-linecap="round"/>
<path d="M26 33.5V31.5" stroke="url(#cloud_fg)" stroke-width="1.2" stroke-linecap="round"/>
<path d="M14 31.5H26" stroke="url(#cloud_fg)" stroke-width="1.2" stroke-linecap="round"/>
</svg>
