<svg width="40" height="40" viewBox="0 0 40 40" fill="none" xmlns="http://www.w3.org/2000/svg">
<defs>
<linearGradient id="iam_bg" x1="3" y1="1" x2="28" y2="38" gradientUnits="userSpaceOnUse">
<stop offset="0.259336" stop-color="#FFDB6E"/>
<stop offset="1" stop-color="#FFBC5E"/>
</linearGradient>
<linearGradient id="iam_fg" x1="8" y1="2" x2="30" y2="38" gradientUnits="userSpaceOnUse">
<stop offset="0.259336" stop-color="#FFDB6E"/>
<stop offset="1" stop-color="#FFBC5E"/>
</linearGradient>
</defs>
<!-- Shield background fill -->
<path opacity="0.15" d="M20 3L6 9V18C6 27 12 33.5 20 36C28 33.5 34 27 34 18V9L20 3Z" fill="url(#iam_bg)"/>
<!-- Shield outline -->
<path d="M20 1.8L4.8 8.2C4.5 8.33 4.3 8.63 4.3 8.96V18.5C4.3 27.8 11.2 35.1 19.7 37.6C19.9 37.66 20.1 37.66 20.3 37.6C28.8 35.1 35.7 27.8 35.7 18.5V8.96C35.7 8.63 35.5 8.33 35.2 8.2L20 1.8ZM20 3.55L33.95 9.4V18.5C33.95 26.8 27.8 33.4 20 35.82C12.2 33.4 6.05 26.8 6.05 18.5V9.4L20 3.55Z" fill="url(#iam_fg)"/>
<!-- Keyhole circle -->
<circle cx="20" cy="16" r="3.8" stroke="url(#iam_fg)" stroke-width="1.5" fill="none"/>
<!-- Keyhole body -->
<path d="M17.8 19L16.5 26.5C16.4 27.1 16.85 27.6 17.45 27.6H22.55C23.15 27.6 23.6 27.1 23.5 26.5L22.2 19" stroke="url(#iam_fg)" stroke-width="1.5" stroke-linecap="round" stroke-linejoin="round" fill="none"/>
<!-- Key dot -->
<circle cx="20" cy="15.8" r="1.3" fill="url(#iam_fg)"/>
</svg>
