<svg width="40" height="40" viewBox="0 0 40 40" fill="none" xmlns="http://www.w3.org/2000/svg">
<defs>
<linearGradient id="demo_bg" x1="3" y1="1" x2="28" y2="38" gradientUnits="userSpaceOnUse">
<stop offset="0.259336" stop-color="#FFDB6E"/>
<stop offset="1" stop-color="#FFBC5E"/>
</linearGradient>
<linearGradient id="demo_fg" x1="5" y1="1" x2="32" y2="38" gradientUnits="userSpaceOnUse">
<stop offset="0.259336" stop-color="#FFDB6E"/>
<stop offset="1" stop-color="#FFBC5E"/>
</linearGradient>
</defs>
<!-- Server rack background -->
<path opacity="0.15" d="M7 3H33C34.1 3 35 3.9 35 5V35C35 36.1 34.1 37 33 37H7C5.9 37 5 36.1 5 35V5C5 3.9 5.9 3 7 3Z" fill="url(#demo_bg)"/>
<!-- Server rack outline -->
<path d="M33.5 1.5H6.5C5.12 1.5 4 2.62 4 4V36C4 37.38 5.12 38.5 6.5 38.5H33.5C34.88 38.5 36 37.38 36 36V4C36 2.62 34.88 1.5 33.5 1.5ZM34.4 36C34.4 36.5 33.99 36.9 33.5 36.9H6.5C6.01 36.9 5.6 36.5 5.6 36V4C5.6 3.5 6.01 3.1 6.5 3.1H33.5C33.99 3.1 34.4 3.5 34.4 4V36Z" fill="url(#demo_fg)"/>
<!-- Divider lines -->
<path d="M5.6 13.5H34.4" stroke="url(#demo_fg)" stroke-width="1.3"/>
<path d="M5.6 26.5H34.4" stroke="url(#demo_fg)" stroke-width="1.3"/>
<!-- Server unit 1 - drive bays -->
<rect x="8.5" y="6" width="4" height="1.8" rx="0.5" fill="url(#demo_fg)"/>
<rect x="14" y="6" width="4" height="1.8" rx="0.5" fill="url(#demo_fg)"/>
<rect x="19.5" y="6" width="4" height="1.8" rx="0.5" fill="url(#demo_fg)"/>
<!-- Status LED row 1 -->
<circle cx="30" cy="6" r="1" fill="url(#demo_fg)"/>
<circle cx="30" cy="10" r="1" fill="url(#demo_fg)"/>
<!-- Server unit 2 - drive bays -->
<rect x="8.5" y="16.5" width="4" height="1.8" rx="0.5" fill="url(#demo_fg)"/>
<rect x="14" y="16.5" width="4" height="1.8" rx="0.5" fill="url(#demo_fg)"/>
<rect x="19.5" y="16.5" width="4" height="1.8" rx="0.5" fill="url(#demo_fg)"/>
<!-- Status LED row 2 -->
<circle cx="30" cy="16.5" r="1" fill="url(#demo_fg)"/>
<circle cx="30" cy="20.5" r="1" fill="url(#demo_fg)"/>
<!-- Server unit 3 - play/demo indicator -->
<path d="M16 30L16 34L22 32Z" fill="url(#demo_fg)" stroke="url(#demo_fg)" stroke-width="1" stroke-linejoin="round"/>
<!-- Status LED row 3 -->
<circle cx="30" cy="29.5" r="1" fill="url(#demo_fg)"/>
<circle cx="30" cy="33.5" r="1" fill="url(#demo_fg)"/>
</svg>
